<svg xmlns="http://www.w3.org/2000/svg" width="12" height="12" fill="none"><path fill="#000" d="M7.655 4.345a3.56 3.56 0 0 1 0 5.038L6.08 10.958a3.566 3.566 0 0 1-5.038 0 3.566 3.566 0 0 1 0-5.038l.87-.87a.375.375 0 0 1 .64.249c.014.415.089.833.226 1.236a.377.377 0 0 1-.088.389l-.307.307c-.657.657-.678 1.726-.027 2.39a1.69 1.69 0 0 0 2.398.011L6.33 8.058a1.687 1.687 0 0 0-.242-2.588.376.376 0 0 1-.163-.295.934.934 0 0 1 .274-.699l.494-.493a.376.376 0 0 1 .482-.041c.172.12.333.255.481.403Zm3.303-3.303a3.566 3.566 0 0 0-5.038 0L4.345 2.617a3.56 3.56 0 0 0 .481 5.441c.15.105.353.089.482-.04l.494-.494a.934.934 0 0 0 .274-.699.376.376 0 0 0-.163-.295 1.687 1.687 0 0 1-.242-2.587l1.575-1.575a1.69 1.69 0 0 1 2.398.012c.65.663.63 1.732-.027 2.39l-.307.306a.377.377 0 0 0-.088.39c.137.402.212.82.227 1.235.012.326.409.48.64.249l.87-.87a3.566 3.566 0 0 0 0-5.038Z"/></svg>