<svg xmlns="http://www.w3.org/2000/svg" width="16" height="16" fill="none"><path fill="#000" d="m14.695 4.438-1.36 1.441a.34.34 0 0 1-.503 0L9.556 2.41a.391.391 0 0 1 0-.531l1.36-1.44a1.365 1.365 0 0 1 2.005 0l1.774 1.877a1.56 1.56 0 0 1 0 2.122ZM8.387 3.117l-7.75 8.206L.01 15.12c-.085.513.337.956.82.869l3.587-.666 7.75-8.206a.391.391 0 0 0 0-.532L8.892 3.117a.344.344 0 0 0-.505 0ZM3.662 10.62a.454.454 0 0 1 0-.619l4.545-4.813a.396.396 0 0 1 .585 0 .454.454 0 0 1 0 .62L4.247 10.62a.396.396 0 0 1-.585 0Zm-1.065 2.628h1.416v1.135l-1.903.353-.918-.972.333-2.016h1.072v1.5Z"/></svg>